<svg width="15" height="15" viewBox="0 0 15 15" fill="none" xmlns="http://www.w3.org/2000/svg">
<g clip-path="url(#clip0_1_1315)">
<path d="M10.3125 7.75C10.3125 8.35703 10.2797 8.94219 10.2223 9.5H5.15273C5.09258 8.94219 5.0625 8.35703 5.0625 7.75C5.0625 7.14297 5.09531 6.55781 5.15273 6H10.2223C10.2824 6.55781 10.3125 7.14297 10.3125 7.75ZM11.1 6H14.466C14.6109 6.56055 14.6875 7.1457 14.6875 7.75C14.6875 8.3543 14.6109 8.93945 14.466 9.5H11.1C11.1574 8.93672 11.1875 8.35156 11.1875 7.75C11.1875 7.14844 11.1574 6.56328 11.1 6ZM14.1789 5.125H10.9879C10.7145 3.37773 10.173 1.91484 9.47578 0.979687C11.6168 1.5457 13.3586 3.09883 14.1762 5.125H14.1789ZM10.102 5.125H5.27305C5.43984 4.12969 5.69688 3.24922 6.01133 2.53555C6.29844 1.89023 6.61836 1.42266 6.92734 1.12734C7.23359 0.8375 7.48789 0.75 7.6875 0.75C7.88711 0.75 8.14141 0.8375 8.44766 1.12734C8.75664 1.42266 9.07656 1.89023 9.36367 2.53555C9.68086 3.24648 9.93516 4.12695 10.102 5.125ZM4.38711 5.125H1.19609C2.01641 3.09883 3.75547 1.5457 5.89922 0.979687C5.20195 1.91484 4.66055 3.37773 4.38711 5.125ZM0.908984 6H4.275C4.21758 6.56328 4.1875 7.14844 4.1875 7.75C4.1875 8.35156 4.21758 8.93672 4.275 9.5H0.908984C0.764063 8.93945 0.6875 8.3543 0.6875 7.75C0.6875 7.1457 0.764063 6.56055 0.908984 6ZM6.01133 12.9617C5.69414 12.2508 5.43984 11.3703 5.27305 10.375H10.102C9.93516 11.3703 9.67812 12.2508 9.36367 12.9617C9.07656 13.607 8.75664 14.0746 8.44766 14.3699C8.14141 14.6625 7.88711 14.75 7.6875 14.75C7.48789 14.75 7.23359 14.6625 6.92734 14.3727C6.61836 14.0773 6.29844 13.6098 6.01133 12.9645V12.9617ZM4.38711 10.375C4.66055 12.1223 5.20195 13.5852 5.89922 14.5203C3.75547 13.9543 2.01641 12.4012 1.19609 10.375H4.38711ZM14.1789 10.375C13.3586 12.4012 11.6195 13.9543 9.47852 14.5203C10.1758 13.5852 10.7145 12.1223 10.9906 10.375H14.1789Z" fill="#6B7280"/>
</g>
<defs>
<clipPath id="clip0_1_1315">
<path d="M0.6875 0.75H14.6875V14.75H0.6875V0.75Z" fill="white"/>
</clipPath>
</defs>
</svg>
