<svg width="13" height="15" viewBox="0 0 13 15" fill="none" xmlns="http://www.w3.org/2000/svg">
<g clip-path="url(#clip0_1_1310)">
<path d="M3.35938 1.625V2.5H2.04688C1.32227 2.5 0.734375 3.08789 0.734375 3.8125V5.125H12.9844V3.8125C12.9844 3.08789 12.3965 2.5 11.6719 2.5H10.3594V1.625C10.3594 1.14102 9.96836 0.75 9.48438 0.75C9.00039 0.75 8.60938 1.14102 8.60938 1.625V2.5H5.10938V1.625C5.10938 1.14102 4.71836 0.75 4.23438 0.75C3.75039 0.75 3.35938 1.14102 3.35938 1.625ZM12.9844 6H0.734375V13.4375C0.734375 14.1621 1.32227 14.75 2.04688 14.75H11.6719C12.3965 14.75 12.9844 14.1621 12.9844 13.4375V6Z" fill="#6B7280"/>
</g>
<defs>
<clipPath id="clip0_1_1310">
<path d="M0.734375 0.75H12.9844V14.75H0.734375V0.75Z" fill="white"/>
</clipPath>
</defs>
</svg>
