<svg width="18" height="15" viewBox="0 0 18 15" fill="none" xmlns="http://www.w3.org/2000/svg">
<g clip-path="url(#clip0_1_1431)">
<path d="M0.328125 7.34258C0.328125 5.15234 2.10547 3.375 4.2957 3.375C5.34844 3.375 6.35742 3.79336 7.10117 4.53711L9.07812 6.51133L11.0523 4.53711C11.7988 3.79336 12.8078 3.375 13.8605 3.375C16.0508 3.375 17.8281 5.15234 17.8281 7.34258V8.15469C17.8281 10.3477 16.0508 12.125 13.8605 12.125C12.8078 12.125 11.7988 11.7066 11.0551 10.9629L9.07812 8.98867L7.10391 10.9629C6.35742 11.7066 5.34844 12.125 4.2957 12.125C2.10547 12.125 0.328125 10.3477 0.328125 8.15742V7.34258ZM7.83945 7.75L5.86523 5.77578C5.44961 5.36016 4.88359 5.125 4.2957 5.125C3.0707 5.125 2.07812 6.11758 2.07812 7.34258V8.15469C2.07812 9.37969 3.0707 10.3723 4.2957 10.3723C4.88359 10.3723 5.44961 10.1398 5.86523 9.72148L7.83945 7.75ZM10.3141 7.75L12.2883 9.72422C12.7039 10.1398 13.2699 10.375 13.8578 10.375C15.0828 10.375 16.0754 9.38242 16.0754 8.15742V7.34258C16.0754 6.11758 15.0828 5.125 13.8578 5.125C13.2699 5.125 12.7039 5.35742 12.2883 5.77578L10.3168 7.75H10.3141Z" fill="#EF4444"/>
</g>
<defs>
<clipPath id="clip0_1_1431">
<path d="M0.328125 0.75H17.8281V14.75H0.328125V0.75Z" fill="white"/>
</clipPath>
</defs>
</svg>
