<svg width="11" height="15" viewBox="0 0 11 15" fill="none" xmlns="http://www.w3.org/2000/svg">
<g clip-path="url(#clip0_1_1436)">
<path d="M0.765625 2.5C0.765625 1.53477 1.55039 0.75 2.51562 0.75H8.64062C9.60586 0.75 10.3906 1.53477 10.3906 2.5V13C10.3906 13.9652 9.60586 14.75 8.64062 14.75H2.51562C1.55039 14.75 0.765625 13.9652 0.765625 13V2.5ZM4.26562 13C4.26562 13.2406 4.4625 13.4375 4.70312 13.4375H6.45312C6.69375 13.4375 6.89062 13.2406 6.89062 13C6.89062 12.7594 6.69375 12.5625 6.45312 12.5625H4.70312C4.4625 12.5625 4.26562 12.7594 4.26562 13ZM8.64062 2.5H2.51562V11.25H8.64062V2.5Z" fill="#EF4444"/>
</g>
<defs>
<clipPath id="clip0_1_1436">
<path d="M0.328125 0.75H10.8281V14.75H0.328125V0.75Z" fill="white"/>
</clipPath>
</defs>
</svg>
