<svg width="65" height="64" viewBox="0 0 65 64" fill="none" xmlns="http://www.w3.org/2000/svg">
<path d="M32.6562 0C50.3294 0 64.6562 14.3269 64.6562 32C64.6562 49.6731 50.3294 64 32.6562 64C14.9831 64 0.65625 49.6731 0.65625 32C0.65625 14.3269 14.9831 0 32.6562 0Z" fill="#54D3C3"/>
<path d="M32.6562 0C50.3294 0 64.6562 14.3269 64.6562 32C64.6562 49.6731 50.3294 64 32.6562 64C14.9831 64 0.65625 49.6731 0.65625 32C0.65625 14.3269 14.9831 0 32.6562 0Z" stroke="#E5E7EB"/>
<path d="M42.1562 46H27.1562V18H42.1562V46Z" stroke="#E5E7EB"/>
<g clip-path="url(#clip0_1_1397)">
<path d="M30.0078 23.0235C29.4297 22.668 28.7031 22.6563 28.1133 22.9883C27.5234 23.3204 27.1562 23.9454 27.1562 24.6251V38.3751C27.1562 39.0547 27.5234 39.6797 28.1133 40.0118C28.7031 40.3438 29.4297 40.3282 30.0078 39.9766L41.2578 33.1016C41.8164 32.7618 42.1562 32.1563 42.1562 31.5001C42.1562 30.8438 41.8164 30.2422 41.2578 29.8985L30.0078 23.0235Z" fill="white"/>
</g>
<defs>
<clipPath id="clip0_1_1397">
<path d="M27.1562 21.5H42.1562V41.5H27.1562V21.5Z" fill="white"/>
</clipPath>
</defs>
</svg>
