<svg width="16" height="15" viewBox="0 0 16 15" fill="none" xmlns="http://www.w3.org/2000/svg">
<g clip-path="url(#clip0_1_1320)">
<path d="M0.25 3.375C0.25 2.40977 1.03477 1.625 2 1.625H14.25C15.2152 1.625 16 2.40977 16 3.375V12.125C16 13.0902 15.2152 13.875 14.25 13.875H2C1.03477 13.875 0.25 13.0902 0.25 12.125V3.375ZM5.71875 6.4375C6.10703 6.4375 6.45703 6.6043 6.69766 6.875C6.93828 7.1457 7.35391 7.16758 7.62461 6.92695C7.89531 6.68633 7.91719 6.2707 7.67656 6C7.19805 5.46406 6.49805 5.125 5.72148 5.125C4.27227 5.125 3.09648 6.30078 3.09648 7.75C3.09648 9.19922 4.27227 10.375 5.72148 10.375C6.49805 10.375 7.19805 10.0359 7.67656 9.5C7.91719 9.2293 7.89531 8.81641 7.62461 8.57305C7.35391 8.32969 6.94102 8.3543 6.69766 8.625C6.45703 8.8957 6.10703 9.0625 5.71875 9.0625C4.99414 9.0625 4.40625 8.47461 4.40625 7.75C4.40625 7.02539 4.99414 6.4375 5.71875 6.4375ZM9.65625 7.75C9.65625 7.02539 10.2441 6.4375 10.9688 6.4375C11.357 6.4375 11.707 6.6043 11.9477 6.875C12.1883 7.1457 12.6039 7.16758 12.8746 6.92695C13.1453 6.68633 13.1672 6.2707 12.9266 6C12.448 5.46406 11.748 5.125 10.9715 5.125C9.52227 5.125 8.34648 6.30078 8.34648 7.75C8.34648 9.19922 9.52227 10.375 10.9715 10.375C11.748 10.375 12.448 10.0359 12.9266 9.5C13.1672 9.2293 13.1453 8.81641 12.8746 8.57305C12.6039 8.32969 12.191 8.3543 11.9477 8.625C11.707 8.8957 11.357 9.0625 10.9688 9.0625C10.2441 9.0625 9.65625 8.47461 9.65625 7.75Z" fill="#6B7280"/>
</g>
<defs>
<clipPath id="clip0_1_1320">
<path d="M0.25 0.75H16V14.75H0.25V0.75Z" fill="white"/>
</clipPath>
</defs>
</svg>
