<svg width="48" height="48" viewBox="0 0 48 48" fill="none" xmlns="http://www.w3.org/2000/svg">
<path d="M40 0C44.4183 0 48 3.58172 48 8V40C48 44.4183 44.4183 48 40 48H8C3.58172 48 0 44.4183 0 40V8C5.15405e-07 3.58172 3.58172 0 8 0H40Z" fill="#FAF5FF"/>
<path d="M40 0C44.4183 0 48 3.58172 48 8V40C48 44.4183 44.4183 48 40 48H8C3.58172 48 0 44.4183 0 40V8C5.15405e-07 3.58172 3.58172 0 8 0H40Z" stroke="#E5E7EB"/>
<path d="M32 36H16V12H32V36Z" stroke="#E5E7EB"/>
<path d="M32 31H16V15H32V31Z" stroke="#E5E7EB"/>
<path d="M18 17C18 16.4469 17.5531 16 17 16C16.4469 16 16 16.4469 16 17V27.5C16 28.8813 17.1187 30 18.5 30H31C31.5531 30 32 29.5531 32 29C32 28.4469 31.5531 28 31 28H18.5C18.225 28 18 27.775 18 27.5V17ZM30.7063 19.7063C31.0969 19.3156 31.0969 18.6813 30.7063 18.2906C30.3156 17.9 29.6812 17.9 29.2906 18.2906L26 21.5844L24.2063 19.7906C23.8156 19.4 23.1813 19.4 22.7906 19.7906L19.2906 23.2906C18.9 23.6812 18.9 24.3156 19.2906 24.7063C19.6813 25.0969 20.3156 25.0969 20.7063 24.7063L23.5 21.9156L25.2937 23.7094C25.6844 24.1 26.3188 24.1 26.7094 23.7094L30.7094 19.7094L30.7063 19.7063Z" fill="#6366F1"/>
</svg>
