<svg width="48" height="48" viewBox="0 0 48 48" fill="none" xmlns="http://www.w3.org/2000/svg">
<path d="M40 0C44.4183 0 48 3.58172 48 8V40C48 44.4183 44.4183 48 40 48H8C3.58172 48 0 44.4183 0 40V8C5.15405e-07 3.58172 3.58172 0 8 0H40Z" fill="#F0FDF4"/>
<path d="M40 0C44.4183 0 48 3.58172 48 8V40C48 44.4183 44.4183 48 40 48H8C3.58172 48 0 44.4183 0 40V8C5.15405e-07 3.58172 3.58172 0 8 0H40Z" stroke="#E5E7EB"/>
<path d="M32 36H16V12H32V36Z" stroke="#E5E7EB"/>
<g clip-path="url(#clip0_36_196)">
<path d="M24 31C26.1217 31 28.1566 30.1571 29.6569 28.6569C31.1571 27.1566 32 25.1217 32 23C32 20.8783 31.1571 18.8434 29.6569 17.3431C28.1566 15.8429 26.1217 15 24 15C21.8783 15 19.8434 15.8429 18.3431 17.3431C16.8429 18.8434 16 20.8783 16 23C16 25.1217 16.8429 27.1566 18.3431 28.6569C19.8434 30.1571 21.8783 31 24 31ZM27.5312 21.5312L23.5312 25.5312C23.2375 25.825 22.7625 25.825 22.4719 25.5312L20.4719 23.5312C20.1781 23.2375 20.1781 22.7625 20.4719 22.4719C20.7656 22.1813 21.2406 22.1781 21.5312 22.4719L23 23.9406L26.4688 20.4688C26.7625 20.175 27.2375 20.175 27.5281 20.4688C27.8187 20.7625 27.8219 21.2375 27.5281 21.5281L27.5312 21.5312Z" fill="#22C55E"/>
</g>
<defs>
<clipPath id="clip0_36_196">
<path d="M16 15H32V31H16V15Z" fill="white"/>
</clipPath>
</defs>
</svg>
