<svg width="21" height="16" viewBox="0 0 21 16" fill="none" xmlns="http://www.w3.org/2000/svg">
<g clip-path="url(#clip0_1_748)">
<path d="M12.4156 0.0374825C11.8843 -0.115643 11.3312 0.193733 11.1781 0.724983L7.17808 14.725C7.02495 15.2562 7.33433 15.8094 7.86558 15.9625C8.39683 16.1156 8.94995 15.8062 9.10308 15.275L13.1031 1.27498C13.2562 0.743732 12.9468 0.190607 12.4156 0.0374825ZM14.9343 3.79061C14.5437 4.18123 14.5437 4.81561 14.9343 5.20623L17.725 7.99998L14.9312 10.7937C14.5406 11.1844 14.5406 11.8187 14.9312 12.2094C15.3218 12.6 15.9562 12.6 16.3468 12.2094L19.8468 8.70936C20.2374 8.31873 20.2374 7.68436 19.8468 7.29373L16.3468 3.79373C15.9562 3.40311 15.3218 3.40311 14.9312 3.79373L14.9343 3.79061ZM5.34995 3.79061C4.95933 3.39998 4.32495 3.39998 3.93433 3.79061L0.434326 7.29061C0.0437012 7.68123 0.0437012 8.31561 0.434326 8.70623L3.93433 12.2062C4.32495 12.5969 4.95933 12.5969 5.34995 12.2062C5.74058 11.8156 5.74058 11.1812 5.34995 10.7906L2.5562 7.99998L5.34995 5.20623C5.74058 4.81561 5.74058 4.18123 5.34995 3.79061Z" fill="#6B7280"/>
</g>
<defs>
<clipPath id="clip0_1_748">
<path d="M0.140625 0H20.1406V16H0.140625V0Z" fill="white"/>
</clipPath>
</defs>
</svg>
