<svg width="17" height="16" viewBox="0 0 17 16" fill="none" xmlns="http://www.w3.org/2000/svg">
<g clip-path="url(#clip0_1_753)">
<path d="M8.34375 2C5.03125 2 2.34375 4.6875 2.34375 8C2.34375 11.3125 5.03125 14 8.34375 14C8.89688 14 9.34375 14.4469 9.34375 15C9.34375 15.5531 8.89688 16 8.34375 16C3.925 16 0.34375 12.4187 0.34375 8C0.34375 3.58125 3.925 0 8.34375 0C12.7625 0 16.3438 3.58125 16.3438 8V9C16.3438 10.6562 15 12 13.3438 12C12.4281 12 11.6062 11.5875 11.0562 10.9406C10.3438 11.5969 9.39062 12 8.34375 12C6.13438 12 4.34375 10.2094 4.34375 8C4.34375 5.79063 6.13438 4 8.34375 4C9.21562 4 10.0219 4.27813 10.6781 4.75313C10.8563 4.59688 11.0875 4.5 11.3438 4.5C11.8969 4.5 12.3438 4.94688 12.3438 5.5V8V9C12.3438 9.55313 12.7906 10 13.3438 10C13.8969 10 14.3438 9.55313 14.3438 9V8C14.3438 4.6875 11.6562 2 8.34375 2ZM10.3438 8C10.3438 7.46957 10.133 6.96086 9.75796 6.58579C9.38289 6.21071 8.87418 6 8.34375 6C7.81332 6 7.30461 6.21071 6.92954 6.58579C6.55446 6.96086 6.34375 7.46957 6.34375 8C6.34375 8.53043 6.55446 9.03914 6.92954 9.41421C7.30461 9.78929 7.81332 10 8.34375 10C8.87418 10 9.38289 9.78929 9.75796 9.41421C10.133 9.03914 10.3438 8.53043 10.3438 8Z" fill="#6B7280"/>
</g>
<defs>
<clipPath id="clip0_1_753">
<path d="M0.34375 0H16.3438V16H0.34375V0Z" fill="white"/>
</clipPath>
</defs>
</svg>
