<svg width="17" height="16" viewBox="0 0 17 16" fill="none" xmlns="http://www.w3.org/2000/svg">
<g clip-path="url(#clip0_1_788)">
<path d="M16.7968 7.5C16.7968 11.0906 13.2156 14 8.79683 14C7.63745 14 6.53745 13.8 5.5437 13.4406C5.17182 13.7125 4.56558 14.0844 3.84683 14.3969C3.09683 14.7219 2.1937 15 1.29683 15C1.0937 15 0.91245 14.8781 0.834325 14.6906C0.7562 14.5031 0.79995 14.2906 0.940575 14.1469L0.94995 14.1375C0.959325 14.1281 0.971825 14.1156 0.990575 14.0938C1.02495 14.0562 1.07808 13.9969 1.1437 13.9156C1.27183 13.7594 1.4437 13.5281 1.6187 13.2406C1.9312 12.7219 2.22808 12.0406 2.28745 11.275C1.34995 10.2125 0.796825 8.90938 0.796825 7.5C0.796825 3.90937 4.37808 1 8.79683 1C13.2156 1 16.7968 3.90937 16.7968 7.5Z" fill="#6B7280"/>
</g>
<defs>
<clipPath id="clip0_1_788">
<path d="M0.796875 0H16.7969V16H0.796875V0Z" fill="white"/>
</clipPath>
</defs>
</svg>
