<svg width="14" height="24" viewBox="0 0 14 24" fill="none" xmlns="http://www.w3.org/2000/svg">
<path d="M14 24H0V0H14V24Z" stroke="#E5E7EB"/>
<g clip-path="url(#clip0_25_1034)">
<path d="M4 3C4.55312 3 5 3.44687 5 4V5H9V4C9 3.44687 9.44687 3 10 3C10.5531 3 11 3.44687 11 4V5H12.5C13.3281 5 14 5.67188 14 6.5V8H0V6.5C0 5.67188 0.671875 5 1.5 5H3V4C3 3.44687 3.44688 3 4 3ZM0 9H14V17.5C14 18.3281 13.3281 19 12.5 19H1.5C0.671875 19 0 18.3281 0 17.5V9ZM10.2812 12.5312C10.575 12.2375 10.575 11.7625 10.2812 11.4719C9.9875 11.1813 9.5125 11.1781 9.22188 11.4719L6.25313 14.4406L4.78438 12.9719C4.49063 12.6781 4.01562 12.6781 3.725 12.9719C3.43437 13.2656 3.43125 13.7406 3.725 14.0312L5.725 16.0312C6.01875 16.325 6.49375 16.325 6.78438 16.0312L10.2812 12.5312Z" fill="#16A34A"/>
</g>
<defs>
<clipPath id="clip0_25_1034">
<path d="M0 3H14V19H0V3Z" fill="white"/>
</clipPath>
</defs>
</svg>
