<svg width="12" height="24" viewBox="0 0 12 24" fill="none" xmlns="http://www.w3.org/2000/svg">
<path d="M12 24H0V0H12V24Z" stroke="#E5E7EB"/>
<g clip-path="url(#clip0_25_1074)">
<path d="M5.4314 3.17183C5.77515 2.9437 6.22515 2.9437 6.5689 3.17183L7.12515 3.53745C7.31265 3.65933 7.5314 3.7187 7.75328 3.7062L8.4189 3.66558C8.8314 3.64058 9.2189 3.86558 9.40328 4.23433L9.70328 4.8312C9.80328 5.0312 9.96578 5.19058 10.1627 5.29058L10.7658 5.5937C11.1345 5.77808 11.3595 6.16558 11.3345 6.57808L11.2939 7.2437C11.2814 7.46558 11.3408 7.68745 11.4627 7.87183L11.8314 8.42808C12.0595 8.77183 12.0595 9.22183 11.8314 9.56558L11.4627 10.125C11.3408 10.3125 11.2814 10.5312 11.2939 10.7531L11.3345 11.4187C11.3595 11.8312 11.1345 12.2187 10.7658 12.4031L10.1689 12.7031C9.9689 12.8031 9.80953 12.9656 9.70953 13.1625L9.4064 13.7656C9.22203 14.1343 8.83453 14.3593 8.42203 14.3343L7.7564 14.2937C7.53453 14.2812 7.31265 14.3406 7.12828 14.4625L6.57203 14.8312C6.22828 15.0593 5.77828 15.0593 5.43453 14.8312L4.87515 14.4625C4.68765 14.3406 4.4689 14.2812 4.24703 14.2937L3.5814 14.3343C3.1689 14.3593 2.7814 14.1343 2.59703 13.7656L2.29703 13.1687C2.19703 12.9687 2.03453 12.8093 1.83765 12.7093L1.23453 12.4062C0.865777 12.2218 0.640777 11.8343 0.665776 11.4218L0.706402 10.7562C0.718902 10.5343 0.659527 10.3125 0.537652 10.1281L0.172027 9.5687C-0.0560985 9.22495 -0.0560985 8.77495 0.172027 8.4312L0.537652 7.87495C0.659527 7.68745 0.718902 7.4687 0.706402 7.24683L0.665776 6.5812C0.640777 6.1687 0.865777 5.7812 1.23453 5.59683L1.8314 5.29683C2.0314 5.1937 2.1939 5.0312 2.2939 4.8312L2.5939 4.23433C2.77828 3.86558 3.16578 3.64058 3.57828 3.66558L4.2439 3.7062C4.46578 3.7187 4.68765 3.65933 4.87203 3.53745L5.4314 3.17183ZM8.50015 8.99995C8.50015 8.33691 8.23676 7.70103 7.76792 7.23218C7.29908 6.76334 6.66319 6.49995 6.00015 6.49995C5.33711 6.49995 4.70123 6.76334 4.23238 7.23218C3.76354 7.70103 3.50015 8.33691 3.50015 8.99995C3.50015 9.66299 3.76354 10.2989 4.23238 10.7677C4.70123 11.2366 5.33711 11.5 6.00015 11.5C6.66319 11.5 7.29908 11.2366 7.76792 10.7677C8.23676 10.2989 8.50015 9.66299 8.50015 8.99995ZM0.0407765 16.8062L1.38765 13.6031C1.3939 13.6062 1.39703 13.6093 1.40015 13.6156L1.70015 14.2125C2.06578 14.9375 2.82515 15.3781 3.63765 15.3312L4.30328 15.2906C4.30953 15.2906 4.3189 15.2906 4.32515 15.2968L4.8814 15.6656C5.04078 15.7687 5.20953 15.85 5.38453 15.9062L4.20953 18.6968C4.13765 18.8687 3.97828 18.9843 3.7939 19C3.60953 19.0156 3.4314 18.9312 3.3314 18.775L2.32515 17.2343L0.572026 17.4937C0.393901 17.5187 0.215777 17.4468 0.103277 17.3062C-0.00922346 17.1656 -0.0310985 16.9718 0.0376515 16.8062H0.0407765ZM7.79078 18.6937L6.61578 15.9062C6.79078 15.85 6.95953 15.7718 7.1189 15.6656L7.67515 15.2968C7.6814 15.2937 7.68765 15.2906 7.69703 15.2906L8.36265 15.3312C9.17515 15.3781 9.93453 14.9375 10.3002 14.2125L10.6002 13.6156C10.6033 13.6093 10.6064 13.6062 10.6127 13.6031L11.9627 16.8062C12.0314 16.9718 12.0064 17.1625 11.897 17.3062C11.7877 17.45 11.6064 17.5218 11.4283 17.4937L9.67515 17.2343L8.6689 18.7718C8.5689 18.9281 8.39078 19.0125 8.2064 18.9968C8.02203 18.9812 7.86265 18.8625 7.79078 18.6937Z" fill="#CA8A04"/>
</g>
<defs>
<clipPath id="clip0_25_1074">
<path d="M0 3H12V19H0V3Z" fill="white"/>
</clipPath>
</defs>
</svg>
