<svg width="14" height="24" viewBox="0 0 14 24" fill="none" xmlns="http://www.w3.org/2000/svg">
<path d="M14 24H0V0H14V24Z" stroke="#E5E7EB"/>
<g clip-path="url(#clip0_25_1064)">
<path d="M3 3C1.34375 3 0 4.34375 0 6V16C0 17.6562 1.34375 19 3 19H12H13C13.5531 19 14 18.5531 14 18C14 17.4469 13.5531 17 13 17V15C13.5531 15 14 14.5531 14 14V4C14 3.44687 13.5531 3 13 3H12H3ZM3 15H11V17H3C2.44688 17 2 16.5531 2 16C2 15.4469 2.44688 15 3 15ZM4 7.5C4 7.225 4.225 7 4.5 7H10.5C10.775 7 11 7.225 11 7.5C11 7.775 10.775 8 10.5 8H4.5C4.225 8 4 7.775 4 7.5ZM4.5 9H10.5C10.775 9 11 9.225 11 9.5C11 9.775 10.775 10 10.5 10H4.5C4.225 10 4 9.775 4 9.5C4 9.225 4.225 9 4.5 9Z" fill="#EA580C"/>
</g>
<defs>
<clipPath id="clip0_25_1064">
<path d="M0 3H14V19H0V3Z" fill="white"/>
</clipPath>
</defs>
</svg>
