<svg width="17" height="17" viewBox="0 0 17 17" fill="none" xmlns="http://www.w3.org/2000/svg">
<path d="M8.19629 1C10.1494 1 11.5377 1.00082 12.5908 1.1084C13.6371 1.2153 14.203 1.41624 14.5869 1.70801C14.9316 1.96996 15.1378 2.30723 15.2578 2.98535C15.3889 3.72646 15.3926 4.72374 15.3926 6.22852V12.915C15.3926 13.8909 15.3875 14.4728 15.3115 14.8623C15.2775 15.0364 15.2403 15.0991 15.2314 15.1123C15.2279 15.1143 15.2218 15.1179 15.2119 15.1221C15.1103 15.1648 14.8889 15.1963 14.4766 15.0977C14.0768 15.0019 13.6079 14.811 13.0957 14.5557C12.5882 14.3027 12.0793 14.0078 11.5918 13.7236C11.1245 13.4512 10.6432 13.1674 10.2539 12.9824C9.5421 12.6443 8.91355 12.3214 8.19629 12.3213C7.47882 12.3213 6.84972 12.6442 6.1377 12.9824C5.74846 13.1673 5.26797 13.4513 4.80078 13.7236C4.31323 14.0079 3.8035 14.3026 3.2959 14.5557C2.78383 14.8109 2.31567 15.0019 1.91602 15.0977C1.50316 15.1965 1.2812 15.1648 1.17969 15.1221C1.16836 15.1173 1.1622 15.1132 1.15918 15.1113C1.14895 15.0955 1.11302 15.0311 1.08008 14.8623C1.00413 14.4728 1 13.8909 1 12.915V6.22852C1 4.72374 1.00366 3.72646 1.13477 2.98535C1.25477 2.30727 1.461 1.96995 1.80566 1.70801C2.1896 1.41637 2.75499 1.21528 3.80078 1.1084C4.85394 1.00079 6.24285 1 8.19629 1Z" stroke="#00BEA5" stroke-width="2" stroke-linecap="round" stroke-linejoin="round"/>
</svg>
