<svg width="16" height="21" viewBox="0 0 16 21" fill="none" xmlns="http://www.w3.org/2000/svg">
<g clip-path="url(#clip0_1_945)">
<path d="M7.28913 0.714844C7.71882 0.429688 8.28132 0.429688 8.71101 0.714844L9.40632 1.17188C9.64069 1.32422 9.91413 1.39844 10.1915 1.38281L11.0235 1.33203C11.5391 1.30078 12.0235 1.58203 12.254 2.04297L12.629 2.78906C12.754 3.03906 12.9571 3.23828 13.2032 3.36328L13.9571 3.74219C14.418 3.97266 14.6993 4.45703 14.668 4.97266L14.6173 5.80469C14.6016 6.08203 14.6758 6.35938 14.8282 6.58984L15.2891 7.28516C15.5743 7.71484 15.5743 8.27734 15.2891 8.70703L14.8282 9.40625C14.6758 9.64062 14.6016 9.91406 14.6173 10.1914L14.668 11.0234C14.6993 11.5391 14.418 12.0234 13.9571 12.2539L13.211 12.6289C12.961 12.7539 12.7618 12.957 12.6368 13.2031L12.2579 13.957C12.0274 14.418 11.543 14.6992 11.0274 14.668L10.1954 14.6172C9.91804 14.6016 9.64069 14.6758 9.41022 14.8281L8.71491 15.2891C8.28522 15.5742 7.72272 15.5742 7.29304 15.2891L6.59382 14.8281C6.35944 14.6758 6.086 14.6016 5.80866 14.6172L4.97663 14.668C4.461 14.6992 3.97663 14.418 3.74616 13.957L3.37116 13.2109C3.24616 12.9609 3.04304 12.7617 2.79694 12.6367L2.04304 12.2578C1.5821 12.0273 1.30085 11.543 1.3321 11.0273L1.38288 10.1953C1.3985 9.91797 1.32429 9.64063 1.17194 9.41016L0.714911 8.71094C0.429755 8.28125 0.429755 7.71875 0.714911 7.28906L1.17194 6.59375C1.32429 6.35938 1.3985 6.08594 1.38288 5.80859L1.3321 4.97656C1.30085 4.46094 1.5821 3.97656 2.04304 3.74609L2.78913 3.37109C3.03913 3.24219 3.24225 3.03906 3.36725 2.78906L3.74225 2.04297C3.97272 1.58203 4.4571 1.30078 4.97272 1.33203L5.80476 1.38281C6.0821 1.39844 6.35944 1.32422 6.58991 1.17188L7.28913 0.714844ZM11.1251 8C11.1251 7.1712 10.7958 6.37634 10.2098 5.79029C9.62372 5.20424 8.82887 4.875 8.00007 4.875C7.17127 4.875 6.37641 5.20424 5.79036 5.79029C5.20431 6.37634 4.87507 7.1712 4.87507 8C4.87507 8.8288 5.20431 9.62366 5.79036 10.2097C6.37641 10.7958 7.17127 11.125 8.00007 11.125C8.82887 11.125 9.62372 10.7958 10.2098 10.2097C10.7958 9.62366 11.1251 8.8288 11.1251 8ZM0.550849 17.7578L2.23444 13.7539C2.24225 13.7578 2.24616 13.7617 2.25007 13.7695L2.62507 14.5156C3.0821 15.4219 4.03132 15.9727 5.04694 15.9141L5.87897 15.8633C5.88679 15.8633 5.8985 15.8633 5.90632 15.8711L6.60163 16.332C6.80085 16.4609 7.01179 16.5625 7.23054 16.6328L5.76179 20.1211C5.67194 20.3359 5.47272 20.4805 5.24226 20.5C5.01179 20.5195 4.78913 20.4141 4.66413 20.2188L3.40632 18.293L1.21491 18.6172C0.992255 18.6484 0.769599 18.5586 0.628974 18.3828C0.488349 18.207 0.461005 17.9648 0.546942 17.7578H0.550849ZM10.2383 20.1172L8.7696 16.6328C8.98835 16.5625 9.19929 16.4648 9.39851 16.332L10.0938 15.8711C10.1016 15.8672 10.1094 15.8633 10.1212 15.8633L10.9532 15.9141C11.9688 15.9727 12.918 15.4219 13.3751 14.5156L13.7501 13.7695C13.754 13.7617 13.7579 13.7578 13.7657 13.7539L15.4532 17.7578C15.5391 17.9648 15.5079 18.2031 15.3712 18.3828C15.2344 18.5625 15.0079 18.6523 14.7852 18.6172L12.5938 18.293L11.336 20.2148C11.211 20.4102 10.9883 20.5156 10.7579 20.4961C10.5274 20.4766 10.3282 20.3281 10.2383 20.1172Z" fill="#9333EA"/>
</g>
<defs>
<clipPath id="clip0_1_945">
<path d="M0.5 0.5H15.5V20.5H0.5V0.5Z" fill="white"/>
</clipPath>
</defs>
</svg>
