<svg width="15" height="15" viewBox="0 0 15 15" fill="none" xmlns="http://www.w3.org/2000/svg">
<path d="M6.09767 0.949506C5.93361 0.77724 5.68752 0.711615 5.45783 0.771771C5.22814 0.831928 5.05041 1.01513 4.99025 1.24482L4.55822 2.9538L2.86291 2.47529C2.63322 2.40966 2.38713 2.47529 2.22033 2.64208C2.05353 2.80888 1.98791 3.05497 2.05353 3.28466L2.53205 4.97997L0.823065 5.41474C0.593378 5.47216 0.412909 5.65263 0.350019 5.88232C0.287128 6.11201 0.355487 6.35537 0.527753 6.51943L1.79103 7.7499L0.527753 8.98037C0.355487 9.14443 0.289862 9.39052 0.350019 9.62021C0.410175 9.8499 0.593378 10.0276 0.823065 10.0878L2.53205 10.5198L2.05353 12.2151C1.98791 12.4448 2.05353 12.6909 2.22033 12.8577C2.38713 13.0245 2.63322 13.0901 2.86291 13.0245L4.55822 12.546L4.99025 14.255C5.04768 14.4847 5.22814 14.6651 5.45783 14.728C5.68752 14.7909 5.93088 14.7226 6.09767 14.553L7.32814 13.2897L8.55861 14.553C8.72541 14.7226 8.96877 14.7909 9.19846 14.728C9.42814 14.6651 9.60588 14.4847 9.66603 14.255L10.0981 12.546L11.7934 13.0245C12.0231 13.0901 12.2692 13.0245 12.436 12.8577C12.6028 12.6909 12.6684 12.4448 12.6028 12.2151L12.1242 10.5198L13.8332 10.0878C14.0629 10.0304 14.2434 9.8499 14.3063 9.62021C14.3692 9.39052 14.3008 9.14716 14.1313 8.98037L12.868 7.7499L14.1313 6.51943C14.3008 6.35263 14.3692 6.10927 14.3063 5.87958C14.2434 5.6499 14.0629 5.47216 13.8332 5.41201L12.1242 4.97997L12.6028 3.28466C12.6684 3.05497 12.6028 2.80888 12.436 2.64208C12.2692 2.47529 12.0231 2.40966 11.7934 2.47529L10.0981 2.9538L9.6633 1.24482C9.60588 1.01513 9.42541 0.834662 9.19572 0.771771C8.96603 0.708881 8.72268 0.77724 8.55861 0.949506L7.32814 2.21279L6.09767 0.949506Z" fill="#EF4444"/>
</svg>
