<svg width="15" height="15" viewBox="0 0 15 15" fill="none" xmlns="http://www.w3.org/2000/svg">
<path d="M4.60742 12.9918L4.26289 13.7984C3.75156 13.5387 3.28125 13.2188 2.85469 12.8441L3.47539 12.2234C3.81719 12.5215 4.19727 12.7812 4.60742 12.9918ZM1.43828 8.1875H0.560547C0.598828 8.76719 0.708203 9.32773 0.880469 9.8582L1.69531 9.53281C1.56133 9.10352 1.47109 8.65234 1.43828 8.1875ZM1.43828 7.3125C1.47656 6.79844 1.58047 6.30078 1.7418 5.8332L0.935156 5.48867C0.730078 6.06289 0.601562 6.67539 0.560547 7.3125H1.43828ZM2.08633 5.0293C2.29961 4.62188 2.55664 4.2418 2.85469 3.89453L2.23398 3.27383C1.85937 3.70039 1.53672 4.1707 1.27969 4.68203L2.08633 5.0293ZM11.1836 12.2234C10.8035 12.5516 10.3797 12.8332 9.92305 13.0547L10.2484 13.8695C10.8145 13.5988 11.3367 13.2516 11.8043 12.8414L11.1836 12.2234ZM3.47266 3.27656C3.85273 2.94844 4.27656 2.6668 4.7332 2.44531L4.40781 1.63047C3.8418 1.90117 3.31953 2.24844 2.85469 2.65859L3.47266 3.27656ZM12.5699 10.4707C12.3566 10.8781 12.0996 11.2582 11.8016 11.6055L12.4223 12.2262C12.7969 11.7996 13.1195 11.3266 13.3766 10.818L12.5699 10.4707ZM13.218 8.1875C13.1797 8.70156 13.0758 9.19922 12.9145 9.6668L13.7211 10.0113C13.9262 9.43438 14.0547 8.82187 14.093 8.18477H13.218V8.1875ZM9.11094 13.3828C8.68164 13.5195 8.23047 13.607 7.76562 13.6398V14.5176C8.34531 14.4793 8.90586 14.3699 9.43633 14.1977L9.11094 13.3828ZM6.89062 13.6398C6.37656 13.6016 5.87891 13.4977 5.41133 13.3363L5.0668 14.143C5.64375 14.348 6.25625 14.4766 6.89336 14.5148V13.6398H6.89062ZM12.9609 5.96719C13.0977 6.39648 13.1852 6.84766 13.218 7.3125H14.0957C14.0574 6.73281 13.948 6.17227 13.7758 5.6418L12.9609 5.96719ZM2.85469 11.6055C2.52656 11.2254 2.24492 10.8016 2.02344 10.3449L1.20859 10.6703C1.4793 11.2363 1.82656 11.7586 2.23672 12.2262L2.85469 11.6055ZM7.76562 1.86016C8.27969 1.89844 8.77461 2.00234 9.24492 2.16367L9.58945 1.35703C9.01523 1.15195 8.40273 1.02344 7.76562 0.982422V1.86016ZM5.54531 2.11719C5.97461 1.98047 6.42578 1.89297 6.89062 1.86016V0.982422C6.31094 1.0207 5.75039 1.13008 5.21992 1.30234L5.54531 2.11719ZM12.4223 3.27383L11.8016 3.89453C12.1297 4.27461 12.4113 4.69844 12.6355 5.15508L13.4504 4.82969C13.1797 4.26367 12.8324 3.74141 12.4223 3.27383ZM11.1836 3.27656L11.8043 2.65586C11.3777 2.28125 10.9074 1.95859 10.3961 1.70156L10.0516 2.5082C10.4563 2.72148 10.8391 2.97852 11.1836 3.27656Z" fill="#4ADE80"/>
</svg>
