<svg width="18" height="10" viewBox="0 0 18 10" fill="none" xmlns="http://www.w3.org/2000/svg">
<path d="M0.328125 4.34258C0.328125 2.15234 2.10547 0.375 4.2957 0.375C5.34844 0.375 6.35742 0.793359 7.10117 1.53711L9.07812 3.51133L11.0523 1.53711C11.7988 0.793359 12.8078 0.375 13.8605 0.375C16.0508 0.375 17.8281 2.15234 17.8281 4.34258V5.15469C17.8281 7.34766 16.0508 9.125 13.8605 9.125C12.8078 9.125 11.7988 8.70664 11.0551 7.96289L9.07812 5.98867L7.10391 7.96289C6.35742 8.70664 5.34844 9.125 4.2957 9.125C2.10547 9.125 0.328125 7.34766 0.328125 5.15742V4.34258ZM7.83945 4.75L5.86523 2.77578C5.44961 2.36016 4.88359 2.125 4.2957 2.125C3.0707 2.125 2.07812 3.11758 2.07812 4.34258V5.15469C2.07812 6.37969 3.0707 7.37227 4.2957 7.37227C4.88359 7.37227 5.44961 7.13984 5.86523 6.72148L7.83945 4.75ZM10.3141 4.75L12.2883 6.72422C12.7039 7.13984 13.2699 7.375 13.8578 7.375C15.0828 7.375 16.0754 6.38242 16.0754 5.15742V4.34258C16.0754 3.11758 15.0828 2.125 13.8578 2.125C13.2699 2.125 12.7039 2.35742 12.2883 2.77578L10.3168 4.75H10.3141Z" fill="#EF4444"/>
</svg>
