<svg width="20" height="28" viewBox="0 0 20 28" fill="none" xmlns="http://www.w3.org/2000/svg">
<path d="M20 28H0V0H20V28Z" stroke="#E5E7EB"/>
<g clip-path="url(#clip0_1_919)">
<path d="M0 13.5C0 10.8478 1.05357 8.3043 2.92893 6.42893C4.8043 4.55357 7.34784 3.5 10 3.5C12.6522 3.5 15.1957 4.55357 17.0711 6.42893C18.9464 8.3043 20 10.8478 20 13.5C20 16.1522 18.9464 18.6957 17.0711 20.5711C15.1957 22.4464 12.6522 23.5 10 23.5C7.34784 23.5 4.8043 22.4464 2.92893 20.5711C1.05357 18.6957 0 16.1522 0 13.5ZM7.35547 9.24609C7.05859 9.41016 6.875 9.72656 6.875 10.0625V16.9375C6.875 17.2773 7.05859 17.5898 7.35547 17.7539C7.65234 17.918 8.01172 17.9141 8.30469 17.7344L13.9297 14.2969C14.207 14.125 14.3789 13.8242 14.3789 13.4961C14.3789 13.168 14.207 12.8672 13.9297 12.6953L8.30469 9.25781C8.01562 9.08203 7.65234 9.07422 7.35547 9.23828V9.24609Z" fill="#2563EB"/>
</g>
<defs>
<clipPath id="clip0_1_919">
<path d="M0 3.5H20V23.5H0V3.5Z" fill="white"/>
</clipPath>
</defs>
</svg>
