<svg width="16" height="16" viewBox="0 0 16 16" fill="none" xmlns="http://www.w3.org/2000/svg">
<g clip-path="url(#clip0_31_559)">
<path d="M15.4969 5.20625C15.5969 5.47813 15.5126 5.78125 15.2969 5.975L13.9438 7.20625C13.9782 7.46563 13.9969 7.73125 13.9969 8C13.9969 8.26875 13.9782 8.53438 13.9438 8.79375L15.2969 10.025C15.5126 10.2188 15.5969 10.5219 15.4969 10.7937C15.3594 11.1656 15.1938 11.5219 15.0032 11.8656L14.8563 12.1187C14.6501 12.4625 14.4188 12.7875 14.1657 13.0938C13.9813 13.3188 13.6751 13.3937 13.4001 13.3062L11.6594 12.7531C11.2407 13.075 10.7782 13.3438 10.2844 13.5469L9.89381 15.3313C9.83131 15.6156 9.61256 15.8406 9.32506 15.8875C8.89381 15.9594 8.45006 15.9969 7.99693 15.9969C7.54381 15.9969 7.10006 15.9594 6.66881 15.8875C6.38131 15.8406 6.16256 15.6156 6.10006 15.3313L5.70943 13.5469C5.21568 13.3438 4.75318 13.075 4.33443 12.7531L2.59693 13.3094C2.32193 13.3969 2.01568 13.3188 1.83131 13.0969C1.57818 12.7906 1.34693 12.4656 1.14068 12.1219L0.993807 11.8687C0.803182 11.525 0.637557 11.1687 0.500057 10.7969C0.400057 10.525 0.484432 10.2219 0.700057 10.0281L2.05318 8.79688C2.01881 8.53438 2.00006 8.26875 2.00006 8C2.00006 7.73125 2.01881 7.46563 2.05318 7.20625L0.700057 5.975C0.484432 5.78125 0.400057 5.47813 0.500057 5.20625C0.637557 4.83438 0.803182 4.47813 0.993807 4.13438L1.14068 3.88125C1.34693 3.5375 1.57818 3.2125 1.83131 2.90625C2.01568 2.68125 2.32193 2.60625 2.59693 2.69375L4.33756 3.24688C4.75631 2.925 5.21881 2.65625 5.71256 2.45312L6.10318 0.66875C6.16568 0.384375 6.38443 0.159375 6.67193 0.1125C7.10318 0.0375 7.54693 0 8.00006 0C8.45318 0 8.89693 0.0375 9.32818 0.109375C9.61568 0.15625 9.83443 0.38125 9.89693 0.665625L10.2876 2.45C10.7813 2.65313 11.2438 2.92188 11.6626 3.24375L13.4032 2.69062C13.6782 2.60312 13.9844 2.68125 14.1688 2.90313C14.4219 3.20938 14.6532 3.53437 14.8594 3.87812L15.0063 4.13125C15.1969 4.475 15.3626 4.83125 15.5001 5.20312L15.4969 5.20625ZM8.00006 10.5C8.6631 10.5 9.29898 10.2366 9.76782 9.76777C10.2367 9.29893 10.5001 8.66304 10.5001 8C10.5001 7.33696 10.2367 6.70107 9.76782 6.23223C9.29898 5.76339 8.6631 5.5 8.00006 5.5C7.33702 5.5 6.70113 5.76339 6.23229 6.23223C5.76345 6.70107 5.50006 7.33696 5.50006 8C5.50006 8.66304 5.76345 9.29893 6.23229 9.76777C6.70113 10.2366 7.33702 10.5 8.00006 10.5Z" fill="#475569"/>
</g>
<defs>
<clipPath id="clip0_31_559">
<path d="M0 0H16V16H0V0Z" fill="white"/>
</clipPath>
</defs>
</svg>
