<svg width="14" height="13" viewBox="0 0 14 13" fill="none" xmlns="http://www.w3.org/2000/svg">
<g clip-path="url(#clip0_1_973)">
<path d="M7.4274 0.921875C7.30318 0.664062 7.04068 0.5 6.7524 0.5C6.46412 0.5 6.20396 0.664062 6.0774 0.921875L4.57037 4.02266L1.20474 4.51953C0.923491 4.56172 0.689116 4.75859 0.602397 5.02812C0.515678 5.29766 0.585991 5.59531 0.787553 5.79453L3.22974 8.21094L2.65318 11.6258C2.6063 11.907 2.72349 12.193 2.95552 12.3594C3.18755 12.5258 3.49458 12.5469 3.74771 12.4133L6.75474 10.8078L9.76177 12.4133C10.0149 12.5469 10.3219 12.5281 10.554 12.3594C10.786 12.1906 10.9032 11.907 10.8563 11.6258L10.2774 8.21094L12.7196 5.79453C12.9211 5.59531 12.9938 5.29766 12.9047 5.02812C12.8157 4.75859 12.5836 4.56172 12.3024 4.51953L8.93443 4.02266L7.4274 0.921875Z" fill="#EAB308"/>
</g>
<defs>
<clipPath id="clip0_1_973">
<path d="M0 0.5H13.5V12.5H0V0.5Z" fill="white"/>
</clipPath>
</defs>
</svg>
