<svg width="16" height="13" viewBox="0 0 16 13" fill="none" xmlns="http://www.w3.org/2000/svg">
<path d="M0.25 2.375C0.25 1.40977 1.03477 0.625 2 0.625H14.25C15.2152 0.625 16 1.40977 16 2.375V11.125C16 12.0902 15.2152 12.875 14.25 12.875H2C1.03477 12.875 0.25 12.0902 0.25 11.125V2.375ZM5.71875 5.4375C6.10703 5.4375 6.45703 5.6043 6.69766 5.875C6.93828 6.1457 7.35391 6.16758 7.62461 5.92695C7.89531 5.68633 7.91719 5.2707 7.67656 5C7.19805 4.46406 6.49805 4.125 5.72148 4.125C4.27227 4.125 3.09648 5.30078 3.09648 6.75C3.09648 8.19922 4.27227 9.375 5.72148 9.375C6.49805 9.375 7.19805 9.03594 7.67656 8.5C7.91719 8.2293 7.89531 7.81641 7.62461 7.57305C7.35391 7.32969 6.94102 7.3543 6.69766 7.625C6.45703 7.8957 6.10703 8.0625 5.71875 8.0625C4.99414 8.0625 4.40625 7.47461 4.40625 6.75C4.40625 6.02539 4.99414 5.4375 5.71875 5.4375ZM9.65625 6.75C9.65625 6.02539 10.2441 5.4375 10.9688 5.4375C11.357 5.4375 11.707 5.6043 11.9477 5.875C12.1883 6.1457 12.6039 6.16758 12.8746 5.92695C13.1453 5.68633 13.1672 5.2707 12.9266 5C12.448 4.46406 11.748 4.125 10.9715 4.125C9.52227 4.125 8.34648 5.30078 8.34648 6.75C8.34648 8.19922 9.52227 9.375 10.9715 9.375C11.748 9.375 12.448 9.03594 12.9266 8.5C13.1672 8.2293 13.1453 7.81641 12.8746 7.57305C12.6039 7.32969 12.191 7.3543 11.9477 7.625C11.707 7.8957 11.357 8.0625 10.9688 8.0625C10.2441 8.0625 9.65625 7.47461 9.65625 6.75Z" fill="#6B7280"/>
</svg>
