<svg width="49" height="48" viewBox="0 0 49 48" fill="none" xmlns="http://www.w3.org/2000/svg">
<path d="M36.6562 0C43.2837 0 48.6562 5.37258 48.6562 12V36C48.6562 42.6274 43.2837 48 36.6562 48H12.6562C6.02883 48 0.65625 42.6274 0.65625 36V12C0.65625 5.37258 6.02883 0 12.6562 0H36.6562Z" fill="#DCFCE7"/>
<path d="M36.6562 0C43.2837 0 48.6562 5.37258 48.6562 12V36C48.6562 42.6274 43.2837 48 36.6562 48H12.6562C6.02883 48 0.65625 42.6274 0.65625 36V12C0.65625 5.37258 6.02883 0 12.6562 0H36.6562Z" stroke="#E5E7EB"/>
<path d="M31.6562 36H17.6562V12H31.6562V36Z" stroke="#E5E7EB"/>
<g clip-path="url(#clip0_1_511)">
<path d="M31.3624 18.2938C31.753 18.6844 31.753 19.3188 31.3624 19.7094L23.3624 27.7094C22.9718 28.1 22.3374 28.1 21.9468 27.7094L17.9468 23.7094C17.5562 23.3188 17.5562 22.6844 17.9468 22.2938C18.3374 21.9031 18.9718 21.9031 19.3624 22.2938L22.6562 25.5844L29.9499 18.2938C30.3405 17.9031 30.9749 17.9031 31.3655 18.2938H31.3624Z" fill="#16A34A"/>
</g>
<defs>
<clipPath id="clip0_1_511">
<path d="M17.6562 15H31.6562V31H17.6562V15Z" fill="white"/>
</clipPath>
</defs>
</svg>
