<svg width="48" height="48" viewBox="0 0 48 48" fill="none" xmlns="http://www.w3.org/2000/svg">
<path d="M36 0C42.6274 0 48 5.37258 48 12V36C48 42.6274 42.6274 48 36 48H12C5.37258 48 0 42.6274 0 36V12C0 5.37258 5.37258 0 12 0H36Z" fill="#DBEAFE"/>
<path d="M36 0C42.6274 0 48 5.37258 48 12V36C48 42.6274 42.6274 48 36 48H12C5.37258 48 0 42.6274 0 36V12C0 5.37258 5.37258 0 12 0H36Z" stroke="#E5E7EB"/>
<path d="M32 36H16V12H32V36Z" stroke="#E5E7EB"/>
<g clip-path="url(#clip0_1_521)">
<path d="M24 15C26.1217 15 28.1566 15.8429 29.6569 17.3431C31.1571 18.8434 32 20.8783 32 23C32 25.1217 31.1571 27.1566 29.6569 28.6569C28.1566 30.1571 26.1217 31 24 31C21.8783 31 19.8434 30.1571 18.3431 28.6569C16.8429 27.1566 16 25.1217 16 23C16 20.8783 16.8429 18.8434 18.3431 17.3431C19.8434 15.8429 21.8783 15 24 15ZM23.25 18.75V23C23.25 23.25 23.375 23.4844 23.5844 23.625L26.5844 25.625C26.9281 25.8562 27.3938 25.7625 27.625 25.4156C27.8562 25.0687 27.7625 24.6062 27.4156 24.375L24.75 22.6V18.75C24.75 18.3344 24.4156 18 24 18C23.5844 18 23.25 18.3344 23.25 18.75Z" fill="#2563EB"/>
</g>
<defs>
<clipPath id="clip0_1_521">
<path d="M16 15H32V31H16V15Z" fill="white"/>
</clipPath>
</defs>
</svg>
