<svg width="49" height="48" viewBox="0 0 49 48" fill="none" xmlns="http://www.w3.org/2000/svg">
<path d="M36.3281 0C42.9555 0 48.3281 5.37258 48.3281 12V36C48.3281 42.6274 42.9555 48 36.3281 48H12.3281C5.70071 48 0.328125 42.6274 0.328125 36V12C0.328125 5.37258 5.70071 0 12.3281 0H36.3281Z" fill="#EDE9FE"/>
<path d="M36.3281 0C42.9555 0 48.3281 5.37258 48.3281 12V36C48.3281 42.6274 42.9555 48 36.3281 48H12.3281C5.70071 48 0.328125 42.6274 0.328125 36V12C0.328125 5.37258 5.70071 0 12.3281 0H36.3281Z" stroke="#E5E7EB"/>
<path d="M30.3281 36H18.3281V12H30.3281V36Z" stroke="#E5E7EB"/>
<g clip-path="url(#clip0_1_501)">
<path d="M20.6094 16.2188C20.1469 15.9344 19.5656 15.925 19.0938 16.1906C18.6219 16.4563 18.3281 16.9563 18.3281 17.5V28.5C18.3281 29.0438 18.6219 29.5438 19.0938 29.8094C19.5656 30.075 20.1469 30.0625 20.6094 29.7813L29.6094 24.2813C30.0562 24.0094 30.3281 23.525 30.3281 23C30.3281 22.475 30.0562 21.9938 29.6094 21.7188L20.6094 16.2188Z" fill="#7C3AED"/>
</g>
<defs>
<clipPath id="clip0_1_501">
<path d="M18.3281 15H30.3281V31H18.3281V15Z" fill="white"/>
</clipPath>
</defs>
</svg>
