<svg width="14" height="13" viewBox="0 0 14 13" fill="none" xmlns="http://www.w3.org/2000/svg">
<g clip-path="url(#clip0_1_630)">
<path d="M7.42691 0.921875C7.30269 0.664062 7.04019 0.5 6.75191 0.5C6.46363 0.5 6.20347 0.664062 6.07691 0.921875L4.56988 4.02266L1.20425 4.51953C0.923003 4.56172 0.688628 4.75859 0.601909 5.02812C0.51519 5.29766 0.585503 5.59531 0.787065 5.79453L3.22925 8.21094L2.65269 11.6258C2.60581 11.907 2.723 12.193 2.95503 12.3594C3.18707 12.5258 3.4941 12.5469 3.74722 12.4133L6.75425 10.8078L9.76128 12.4133C10.0144 12.5469 10.3214 12.5281 10.5535 12.3594C10.7855 12.1906 10.9027 11.907 10.8558 11.6258L10.2769 8.21094L12.7191 5.79453C12.9207 5.59531 12.9933 5.29766 12.9043 5.02812C12.8152 4.75859 12.5832 4.56172 12.3019 4.51953L8.93394 4.02266L7.42691 0.921875Z" fill="#EAB308"/>
</g>
<defs>
<clipPath id="clip0_1_630">
<path d="M0 0.5H13.5V12.5H0V0.5Z" fill="white"/>
</clipPath>
</defs>
</svg>
