<svg width="18" height="19" viewBox="0 0 18 19" fill="none" xmlns="http://www.w3.org/2000/svg">
<g clip-path="url(#clip0_39_627)">
<g clip-path="url(#clip1_39_627)">
<path d="M18 9.25C18 9.28164 18 9.31328 18 9.34492C17.9859 10.6281 16.8188 11.5 15.5355 11.5H12.0938C11.1621 11.5 10.4062 12.2559 10.4062 13.1875C10.4062 13.307 10.4203 13.423 10.4414 13.5355C10.5152 13.8941 10.6699 14.2387 10.8211 14.5867C11.0355 15.0719 11.2465 15.5535 11.2465 16.0633C11.2465 17.1812 10.4871 18.1973 9.36914 18.243C9.24609 18.2465 9.12305 18.25 8.99648 18.25C4.02891 18.25 0 14.2211 0 9.25C0 4.27891 4.02891 0.25 9 0.25C13.9711 0.25 18 4.27891 18 9.25ZM4.5 10.375C4.5 10.0766 4.38147 9.79048 4.1705 9.5795C3.95952 9.36853 3.67337 9.25 3.375 9.25C3.07663 9.25 2.79048 9.36853 2.5795 9.5795C2.36853 9.79048 2.25 10.0766 2.25 10.375C2.25 10.6734 2.36853 10.9595 2.5795 11.1705C2.79048 11.3815 3.07663 11.5 3.375 11.5C3.67337 11.5 3.95952 11.3815 4.1705 11.1705C4.38147 10.9595 4.5 10.6734 4.5 10.375ZM4.5 7C4.79837 7 5.08452 6.88147 5.2955 6.6705C5.50647 6.45952 5.625 6.17337 5.625 5.875C5.625 5.57663 5.50647 5.29048 5.2955 5.0795C5.08452 4.86853 4.79837 4.75 4.5 4.75C4.20163 4.75 3.91548 4.86853 3.7045 5.0795C3.49353 5.29048 3.375 5.57663 3.375 5.875C3.375 6.17337 3.49353 6.45952 3.7045 6.6705C3.91548 6.88147 4.20163 7 4.5 7ZM10.125 3.625C10.125 3.32663 10.0065 3.04048 9.7955 2.8295C9.58452 2.61853 9.29837 2.5 9 2.5C8.70163 2.5 8.41548 2.61853 8.2045 2.8295C7.99353 3.04048 7.875 3.32663 7.875 3.625C7.875 3.92337 7.99353 4.20952 8.2045 4.4205C8.41548 4.63147 8.70163 4.75 9 4.75C9.29837 4.75 9.58452 4.63147 9.7955 4.4205C10.0065 4.20952 10.125 3.92337 10.125 3.625ZM13.5 7C13.7984 7 14.0845 6.88147 14.2955 6.6705C14.5065 6.45952 14.625 6.17337 14.625 5.875C14.625 5.57663 14.5065 5.29048 14.2955 5.0795C14.0845 4.86853 13.7984 4.75 13.5 4.75C13.2016 4.75 12.9155 4.86853 12.7045 5.0795C12.4935 5.29048 12.375 5.57663 12.375 5.875C12.375 6.17337 12.4935 6.45952 12.7045 6.6705C12.9155 6.88147 13.2016 7 13.5 7Z" fill="#00BEA5"/>
</g>
</g>
<defs>
<clipPath id="clip0_39_627">
<rect width="18" height="18" fill="white" transform="translate(0 0.25)"/>
</clipPath>
<clipPath id="clip1_39_627">
<path d="M0 0.25H18V18.25H0V0.25Z" fill="white"/>
</clipPath>
</defs>
</svg>
