<svg width="16" height="19" viewBox="0 0 16 19" fill="none" xmlns="http://www.w3.org/2000/svg">
<g clip-path="url(#clip0_39_617)">
<g clip-path="url(#clip1_39_617)">
<path d="M7.8753 0.25C7.25304 0.25 6.7503 0.752734 6.7503 1.375V2.05C4.1839 2.57031 2.2503 4.84141 2.2503 7.5625V8.22344C2.2503 9.87578 1.6421 11.4719 0.545226 12.7094L0.285069 13.0012C-0.0102433 13.3316 -0.0805558 13.8063 0.0987411 14.2105C0.278038 14.6148 0.682335 14.875 1.1253 14.875H14.6253C15.0683 14.875 15.4691 14.6148 15.6519 14.2105C15.8347 13.8063 15.7609 13.3316 15.4655 13.0012L15.2054 12.7094C14.1085 11.4719 13.5003 9.8793 13.5003 8.22344V7.5625C13.5003 4.84141 11.5667 2.57031 9.0003 2.05V1.375C9.0003 0.752734 8.49757 0.25 7.8753 0.25ZM9.46788 17.5926C9.88976 17.1707 10.1253 16.5977 10.1253 16H7.8753H5.6253C5.6253 16.5977 5.86085 17.1707 6.28273 17.5926C6.7046 18.0145 7.27765 18.25 7.8753 18.25C8.47296 18.25 9.04601 18.0145 9.46788 17.5926Z" fill="#00BEA5"/>
</g>
</g>
<defs>
<clipPath id="clip0_39_617">
<rect width="15.75" height="18" fill="white" transform="translate(0 0.25)"/>
</clipPath>
<clipPath id="clip1_39_617">
<path d="M0 0.25H15.75V18.25H0V0.25Z" fill="white"/>
</clipPath>
</defs>
</svg>
