<svg width="18" height="19" viewBox="0 0 18 19" fill="none" xmlns="http://www.w3.org/2000/svg">
<g clip-path="url(#clip0_39_632)">
<g clip-path="url(#clip1_39_632)">
<path d="M12.375 9.25C12.375 10.0305 12.3328 10.7828 12.259 11.5H5.74102C5.66367 10.7828 5.625 10.0305 5.625 9.25C5.625 8.46953 5.66719 7.71719 5.74102 7H12.259C12.3363 7.71719 12.375 8.46953 12.375 9.25ZM13.3875 7H17.7152C17.9016 7.7207 18 8.47305 18 9.25C18 10.027 17.9016 10.7793 17.7152 11.5H13.3875C13.4613 10.7758 13.5 10.0234 13.5 9.25C13.5 8.47656 13.4613 7.72422 13.3875 7ZM17.3461 5.875H13.2434C12.8918 3.62852 12.1957 1.74766 11.2992 0.545312C14.052 1.27305 16.2914 3.26992 17.3426 5.875H17.3461ZM12.1043 5.875H5.8957C6.11016 4.59531 6.44062 3.46328 6.84492 2.5457C7.21406 1.71602 7.62539 1.11484 8.02266 0.735156C8.41641 0.3625 8.74336 0.25 9 0.25C9.25664 0.25 9.58359 0.3625 9.97734 0.735156C10.3746 1.11484 10.7859 1.71602 11.1551 2.5457C11.5629 3.45977 11.8898 4.5918 12.1043 5.875ZM4.75664 5.875H0.653906C1.70859 3.26992 3.94453 1.27305 6.70078 0.545312C5.8043 1.74766 5.1082 3.62852 4.75664 5.875ZM0.284766 7H4.6125C4.53867 7.72422 4.5 8.47656 4.5 9.25C4.5 10.0234 4.53867 10.7758 4.6125 11.5H0.284766C0.0984375 10.7793 0 10.027 0 9.25C0 8.47305 0.0984375 7.7207 0.284766 7ZM6.84492 15.9508C6.43711 15.0367 6.11016 13.9047 5.8957 12.625H12.1043C11.8898 13.9047 11.5594 15.0367 11.1551 15.9508C10.7859 16.7805 10.3746 17.3816 9.97734 17.7613C9.58359 18.1375 9.25664 18.25 9 18.25C8.74336 18.25 8.41641 18.1375 8.02266 17.7648C7.62539 17.3852 7.21406 16.784 6.84492 15.9543V15.9508ZM4.75664 12.625C5.1082 14.8715 5.8043 16.7523 6.70078 17.9547C3.94453 17.227 1.70859 15.2301 0.653906 12.625H4.75664ZM17.3461 12.625C16.2914 15.2301 14.0555 17.227 11.3027 17.9547C12.1992 16.7523 12.8918 14.8715 13.2469 12.625H17.3461Z" fill="#00BEA5"/>
</g>
</g>
<defs>
<clipPath id="clip0_39_632">
<rect width="18" height="18" fill="white" transform="translate(0 0.25)"/>
</clipPath>
<clipPath id="clip1_39_632">
<path d="M0 0.25H18V18.25H0V0.25Z" fill="white"/>
</clipPath>
</defs>
</svg>
