<svg width="16" height="28" viewBox="0 0 16 28" fill="none" xmlns="http://www.w3.org/2000/svg">
<path d="M15.75 28H0V0H15.75V28Z" stroke="#E5E7EB"/>
<g clip-path="url(#clip0_39_610)">
<path d="M7.875 13.25C9.06847 13.25 10.2131 12.7759 11.057 11.932C11.9009 11.0881 12.375 9.94347 12.375 8.75C12.375 7.55653 11.9009 6.41193 11.057 5.56802C10.2131 4.72411 9.06847 4.25 7.875 4.25C6.68153 4.25 5.53693 4.72411 4.69302 5.56802C3.84911 6.41193 3.375 7.55653 3.375 8.75C3.375 9.94347 3.84911 11.0881 4.69302 11.932C5.53693 12.7759 6.68153 13.25 7.875 13.25ZM6.26836 14.9375C2.80547 14.9375 0 17.743 0 21.2059C0 21.7824 0.467578 22.25 1.04414 22.25H14.7059C15.2824 22.25 15.75 21.7824 15.75 21.2059C15.75 17.743 12.9445 14.9375 9.48164 14.9375H6.26836Z" fill="#00BEA5"/>
</g>
<defs>
<clipPath id="clip0_39_610">
<path d="M0 4.25H15.75V22.25H0V4.25Z" fill="white"/>
</clipPath>
</defs>
</svg>
