<svg width="25" height="26" viewBox="0 0 25 26" fill="none" xmlns="http://www.w3.org/2000/svg">
<path d="M18.6875 19.1875C16.9068 20.5448 14.7386 21.2967 12.5 21.3333C5.20829 21.3333 1.04163 13 1.04163 13C2.33734 10.5853 4.13448 8.47562 6.31246 6.81249M10.3125 4.91666C11.0295 4.74882 11.7636 4.66493 12.5 4.66666C19.7916 4.66666 23.9583 13 23.9583 13C23.326 14.1829 22.5719 15.2966 21.7083 16.3229M14.7083 15.2083C14.4222 15.5154 14.0772 15.7616 13.6939 15.9324C13.3105 16.1032 12.8967 16.1951 12.4771 16.2025C12.0575 16.2099 11.6408 16.1327 11.2516 15.9755C10.8625 15.8183 10.509 15.5844 10.2123 15.2877C9.91556 14.9909 9.68162 14.6374 9.52445 14.2483C9.36728 13.8592 9.29009 13.4424 9.29749 13.0228C9.3049 12.6032 9.39674 12.1894 9.56754 11.8061C9.73834 11.4228 9.9846 11.0777 10.2916 10.7917M1.04163 1.54166L23.9583 24.4583" stroke="#757575" stroke-width="2" stroke-linecap="round" stroke-linejoin="round"/>
</svg>
