<svg width="22" height="23" viewBox="0 0 22 23" fill="none" xmlns="http://www.w3.org/2000/svg">
<path fill-rule="evenodd" clip-rule="evenodd" d="M5.16667 6.33333C5.16667 3.11067 7.7773 0.5 11 0.5C14.2227 0.5 16.8333 3.11067 16.8333 6.33333V7.5H19.1667C20.9167 7.5 21.5 8.34 21.5 9.3667V20.45C21.5 21.7387 20.4553 22.7833 19.1667 22.7833H2.83333C1.54467 22.7833 0.5 21.7387 0.5 20.45V9.3667C0.5 8.34 1.08333 7.5 2.65833 7.5H5.16667V6.33333ZM14.5 6.33333V7.5H7.5V6.33333C7.5 4.39933 9.066 2.83333 11 2.83333C12.934 2.83333 14.5 4.39933 14.5 6.33333ZM11 11C9.7113 11 8.6014 12.0463 8.6667 13.3333C8.7099 14.1848 9.1436 14.8508 9.8333 15.1785V16.8333C9.8333 17.3166 10.0401 18.5833 11 18.5833C11.9599 18.5833 12.1667 17.3166 12.1667 16.8333V15.1785C12.8564 14.8508 13.2901 14.1848 13.3333 13.3333C13.3986 12.0463 12.2887 11 11 11Z" fill="#0D0D0D" fill-opacity="0.36"/>
</svg>
